<?xml version="1.0" encoding="iso-8859-1"?>
<!-- Uploaded to: SVG Repo, www.svgrepo.com, Generator: SVG Repo Mixer Tools -->
<svg fill="#000000" height="800px" width="800px" version="1.1" id="Layer_1" xmlns="http://www.w3.org/2000/svg" xmlns:xlink="http://www.w3.org/1999/xlink" 
	 viewBox="0 0 511.989 511.989" xml:space="preserve">
<g>
	<g>
		<g>
			<path d="M507.375,306.818c-14.968-20.838-30.131-21.171-68.088-1.203l-73.574,44.996c-8.636,4.591-45.261,16.068-49.98,16.068
				H179.2c-25.6,0-25.6,12.843-25.6,17.067c0,4.71-3.814,8.533-8.533,8.533c-4.71,0-8.533-3.823-8.533-8.533
				c0-21.376,15.957-34.133,42.667-34.133h133.453c0-5.931-2.347-12.476-7.108-19.584c-5.726-8.542-13.321-15.488-22.033-20.745
				c2.423-1.724,4.838-3.447,7.049-5.427l-24.269-24.269c-5.257,4.301-11.426,7.518-18.321,8.917v10.129
				c-1.254-0.068-2.483-0.222-3.755-0.222h-13.312v-9.907c-6.042-1.229-11.554-3.823-16.375-7.322l-16.247,16.247
				c-6.545-0.99-12.911-2.739-18.927-5.205L203,268.58c-2.458-4.087-4.378-8.525-5.359-13.338h-34.5
				c1.493,13.372,6.545,25.609,14.02,36.019c-5.376-2.398-10.479-5.316-15.121-8.815c-30.618-23.074-78.797,1.86-102.306,16.794
				v-17.894H0v221.867h59.733v-25.6h110.933c17.442,0,35.004-1.331,52.198-3.951l110.609-16.811
				c4.028-0.051,8.115-0.529,11.742-1.348c10.18-1.434,19.917-6.298,28.177-14.089l129.348-100.719l0.196-0.162
				C513.007,332.196,514.953,317.382,507.375,306.818z"/>
			<path d="M316.24,93.611c1.579,14.165,7.057,27.136,15.283,37.914l24.576-24.576c-2.458-4.079-4.386-8.525-5.367-13.338H316.24z"
				/>
			<path d="M366.938,85.076c0,14.114,11.486,25.6,25.6,25.6c14.114,0,25.6-11.486,25.6-25.6s-11.486-25.6-25.6-25.6
				C378.424,59.476,366.938,70.962,366.938,85.076z"/>
			<path d="M359.654,58.227l-24.269-24.269c-10.385,11.597-17.331,26.308-19.149,42.581h34.5
				C352.137,69.653,355.354,63.483,359.654,58.227z"/>
			<path d="M468.834,93.609h-34.492c-0.802,3.942-2.313,7.578-4.122,11.051l24.849,24.849
				C462.46,119.132,467.358,106.896,468.834,93.609z"/>
			<path d="M401.071,126.881v34.492c16.282-1.809,30.993-8.755,42.59-19.14l-24.269-24.277
				C414.135,122.256,407.966,125.473,401.071,126.881z"/>
			<path d="M384.007,126.879c-6.042-1.229-11.563-3.823-16.384-7.322l-24.354,24.354c11.29,9.472,25.327,15.744,40.738,17.459
				V126.879z"/>
			<path d="M434.342,76.542h34.492c-1.715-15.403-7.987-29.44-17.459-40.738L427.02,60.167
				C430.519,64.988,433.113,70.501,434.342,76.542z"/>
			<path d="M384.004,43.272V8.78c-13.286,1.476-25.532,6.374-35.9,13.764l24.849,24.849
				C376.418,45.584,380.062,44.074,384.004,43.272z"/>
			<path d="M438.989,24.06c-10.778-8.226-23.757-13.705-37.914-15.283v34.492c4.813,0.981,9.259,2.91,13.338,5.367L438.989,24.06z"
				/>
			<path d="M213.841,246.706c0,14.114,11.486,25.6,25.6,25.6s25.6-11.486,25.6-25.6c0-14.114-11.486-25.6-25.6-25.6
				S213.841,232.592,213.841,246.706z"/>
			<path d="M206.557,219.856l-24.269-24.269c-10.385,11.597-17.331,26.308-19.149,42.581h34.5
				C199.039,231.282,202.256,225.112,206.557,219.856z"/>
			<path d="M277.124,266.285l24.849,24.849c7.381-10.368,12.288-22.613,13.764-35.9h-34.492
				C280.444,259.177,278.933,262.821,277.124,266.285z"/>
			<path d="M281.245,238.172h34.492c-1.715-15.403-7.987-29.44-17.459-40.738l-24.354,24.363
				C277.422,226.618,280.016,232.131,281.245,238.172z"/>
			<path d="M230.908,204.901v-34.492c-13.286,1.476-25.532,6.374-35.9,13.764l24.849,24.849
				C223.322,207.213,226.965,205.703,230.908,204.901z"/>
			<path d="M285.891,185.689c-10.778-8.226-23.757-13.705-37.914-15.283v34.492c4.813,0.981,9.259,2.91,13.338,5.367
				L285.891,185.689z"/>
		</g>
	</g>
</g>
</svg>